# xmcd
#
# Track frame offsets: 
#        150
#        11072
#        23730
#        38555
#        51687
#        69412
#        91315
#        109937
#        126685
#        129515
#        147490
#        163867
#        175122
#
# Disc length: 2656 seconds
#
# Revision: 2
# Processed by: cddbd v1.4PL0 Copyright (c) Steve Scherf et al.
# Submitted via: ExactAudioCopy v0.90b4
#
DISCID=bd0a5e0d
DTITLE=Fred Eaglesmith - Lipstick Lies and Gasoline
DYEAR=1900
DGENRE=Country
TTITLE0=Seven Shells
TTITLE1=105
TTITLE2=Thinking
TTITLE3=Bell
TTITLE4=Drinking Too Much
TTITLE5=Pontiac
TTITLE6=Spookin' The Horses
TTITLE7=Time To Get A Gun
TTITLE8=Bell (Reprise)
TTITLE9=Alcohol and Pills
TTITLE10=Angel Of The Lord
TTITLE11=Seven Angels (Crash)
TTITLE12=Water In The Fuel
EXTD=
EXTT0=
EXTT1=
EXTT2=
EXTT3=
EXTT4=
EXTT5=
EXTT6=
EXTT7=
EXTT8=
EXTT9=
EXTT10=
EXTT11=
EXTT12=
PLAYORDER=
